<mxfile host="app.diagrams.net" modified="2024-04-14T13:33:39.859Z" agent="Mozilla/5.0 (Windows NT 10.0; Win64; x64) AppleWebKit/537.36 (KHTML, like Gecko) Chrome/123.0.0.0 Safari/537.36" etag="fNtZV8V7U5tHSCQ4tuLy" version="24.2.1" type="device">
  <diagram name="Page-1" id="ZjJ6rUxtY7kgPxrVI3Gp">
    <mxGraphModel dx="1050" dy="625" grid="1" gridSize="10" guides="1" tooltips="1" connect="1" arrows="1" fold="1" page="1" pageScale="1" pageWidth="1100" pageHeight="850" math="0" shadow="0">
      <root>
        <mxCell id="0" />
        <mxCell id="1" parent="0" />
        <mxCell id="OTFyuBFAIsrNicnEkzx7-14" value="ASN65500" style="rounded=1;whiteSpace=wrap;html=1;fillColor=none;dashed=1;arcSize=5;labelPosition=center;verticalLabelPosition=top;align=center;verticalAlign=bottom;" vertex="1" parent="1">
          <mxGeometry x="240" y="140" width="640" height="300" as="geometry" />
        </mxCell>
        <mxCell id="_DbBz5vXwKekXFDE-kG2-22" value="AS65101" style="rounded=1;whiteSpace=wrap;html=1;fillColor=#dae8fc;strokeColor=none;labelPosition=left;verticalLabelPosition=middle;align=right;verticalAlign=middle;textDirection=vertical-lr;" parent="1" vertex="1">
          <mxGeometry x="742" y="320" width="119" height="90" as="geometry" />
        </mxCell>
        <mxCell id="_DbBz5vXwKekXFDE-kG2-21" value="AS65003" style="rounded=1;whiteSpace=wrap;html=1;fillColor=#dae8fc;strokeColor=none;labelPosition=left;verticalLabelPosition=middle;align=right;verticalAlign=middle;textDirection=vertical-lr;" parent="1" vertex="1">
          <mxGeometry x="580.5" y="320" width="119" height="90" as="geometry" />
        </mxCell>
        <mxCell id="_DbBz5vXwKekXFDE-kG2-19" value="AS65002" style="rounded=1;whiteSpace=wrap;html=1;fillColor=#dae8fc;strokeColor=none;labelPosition=left;verticalLabelPosition=middle;align=right;verticalAlign=middle;textDirection=vertical-lr;" parent="1" vertex="1">
          <mxGeometry x="421.5" y="320" width="119" height="90" as="geometry" />
        </mxCell>
        <mxCell id="_DbBz5vXwKekXFDE-kG2-18" value="AS65001" style="rounded=1;whiteSpace=wrap;html=1;fillColor=#dae8fc;strokeColor=none;labelPosition=left;verticalLabelPosition=middle;align=right;verticalAlign=middle;textDirection=vertical-lr;" parent="1" vertex="1">
          <mxGeometry x="261" y="320" width="119" height="90" as="geometry" />
        </mxCell>
        <mxCell id="_DbBz5vXwKekXFDE-kG2-17" value="AS65000" style="rounded=1;whiteSpace=wrap;html=1;fillColor=#dae8fc;strokeColor=none;labelPosition=left;verticalLabelPosition=middle;align=right;verticalAlign=middle;textDirection=vertical-lr;" parent="1" vertex="1">
          <mxGeometry x="380" y="160" width="360" height="90" as="geometry" />
        </mxCell>
        <mxCell id="_DbBz5vXwKekXFDE-kG2-1" value="S1" style="sketch=0;points=[[0.015,0.015,0],[0.985,0.015,0],[0.985,0.985,0],[0.015,0.985,0],[0.25,0,0],[0.5,0,0],[0.75,0,0],[1,0.25,0],[1,0.5,0],[1,0.75,0],[0.75,1,0],[0.5,1,0],[0.25,1,0],[0,0.75,0],[0,0.5,0],[0,0.25,0]];verticalLabelPosition=bottom;html=1;verticalAlign=top;aspect=fixed;align=center;pointerEvents=1;shape=mxgraph.cisco19.rect;prIcon=l2_switch;fillColor=#FAFAFA;strokeColor=#005073;" parent="1" vertex="1">
          <mxGeometry x="415" y="176" width="50" height="50" as="geometry" />
        </mxCell>
        <mxCell id="_DbBz5vXwKekXFDE-kG2-2" value="S2" style="sketch=0;points=[[0.015,0.015,0],[0.985,0.015,0],[0.985,0.985,0],[0.015,0.985,0],[0.25,0,0],[0.5,0,0],[0.75,0,0],[1,0.25,0],[1,0.5,0],[1,0.75,0],[0.75,1,0],[0.5,1,0],[0.25,1,0],[0,0.75,0],[0,0.5,0],[0,0.25,0]];verticalLabelPosition=bottom;html=1;verticalAlign=top;aspect=fixed;align=center;pointerEvents=1;shape=mxgraph.cisco19.rect;prIcon=l2_switch;fillColor=#FAFAFA;strokeColor=#005073;" parent="1" vertex="1">
          <mxGeometry x="655" y="176" width="50" height="50" as="geometry" />
        </mxCell>
        <mxCell id="_DbBz5vXwKekXFDE-kG2-7" style="rounded=0;orthogonalLoop=1;jettySize=auto;html=1;endArrow=none;endFill=0;" parent="1" source="_DbBz5vXwKekXFDE-kG2-3" target="_DbBz5vXwKekXFDE-kG2-1" edge="1">
          <mxGeometry relative="1" as="geometry" />
        </mxCell>
        <mxCell id="_DbBz5vXwKekXFDE-kG2-13" style="rounded=0;orthogonalLoop=1;jettySize=auto;html=1;endArrow=none;endFill=0;" parent="1" source="_DbBz5vXwKekXFDE-kG2-3" target="_DbBz5vXwKekXFDE-kG2-2" edge="1">
          <mxGeometry relative="1" as="geometry" />
        </mxCell>
        <mxCell id="_DbBz5vXwKekXFDE-kG2-3" value="L1" style="sketch=0;points=[[0.015,0.015,0],[0.985,0.015,0],[0.985,0.985,0],[0.015,0.985,0],[0.25,0,0],[0.5,0,0],[0.75,0,0],[1,0.25,0],[1,0.5,0],[1,0.75,0],[0.75,1,0],[0.5,1,0],[0.25,1,0],[0,0.75,0],[0,0.5,0],[0,0.25,0]];verticalLabelPosition=bottom;html=1;verticalAlign=top;aspect=fixed;align=center;pointerEvents=1;shape=mxgraph.cisco19.rect;prIcon=l2_switch;fillColor=#FAFAFA;strokeColor=#005073;" parent="1" vertex="1">
          <mxGeometry x="295" y="336" width="50" height="50" as="geometry" />
        </mxCell>
        <mxCell id="_DbBz5vXwKekXFDE-kG2-9" style="rounded=0;orthogonalLoop=1;jettySize=auto;html=1;endArrow=none;endFill=0;" parent="1" source="_DbBz5vXwKekXFDE-kG2-4" target="_DbBz5vXwKekXFDE-kG2-2" edge="1">
          <mxGeometry relative="1" as="geometry" />
        </mxCell>
        <mxCell id="_DbBz5vXwKekXFDE-kG2-14" style="rounded=0;orthogonalLoop=1;jettySize=auto;html=1;endArrow=none;endFill=0;" parent="1" source="_DbBz5vXwKekXFDE-kG2-4" target="_DbBz5vXwKekXFDE-kG2-1" edge="1">
          <mxGeometry relative="1" as="geometry" />
        </mxCell>
        <mxCell id="_DbBz5vXwKekXFDE-kG2-4" value="L2" style="sketch=0;points=[[0.015,0.015,0],[0.985,0.015,0],[0.985,0.985,0],[0.015,0.985,0],[0.25,0,0],[0.5,0,0],[0.75,0,0],[1,0.25,0],[1,0.5,0],[1,0.75,0],[0.75,1,0],[0.5,1,0],[0.25,1,0],[0,0.75,0],[0,0.5,0],[0,0.25,0]];verticalLabelPosition=bottom;html=1;verticalAlign=top;aspect=fixed;align=center;pointerEvents=1;shape=mxgraph.cisco19.rect;prIcon=l2_switch;fillColor=#FAFAFA;strokeColor=#005073;" parent="1" vertex="1">
          <mxGeometry x="456" y="336" width="50" height="50" as="geometry" />
        </mxCell>
        <mxCell id="_DbBz5vXwKekXFDE-kG2-11" style="rounded=0;orthogonalLoop=1;jettySize=auto;html=1;endArrow=none;endFill=0;" parent="1" source="_DbBz5vXwKekXFDE-kG2-5" target="_DbBz5vXwKekXFDE-kG2-2" edge="1">
          <mxGeometry relative="1" as="geometry" />
        </mxCell>
        <mxCell id="_DbBz5vXwKekXFDE-kG2-15" style="rounded=0;orthogonalLoop=1;jettySize=auto;html=1;endArrow=none;endFill=0;" parent="1" source="_DbBz5vXwKekXFDE-kG2-5" target="_DbBz5vXwKekXFDE-kG2-1" edge="1">
          <mxGeometry relative="1" as="geometry" />
        </mxCell>
        <mxCell id="_DbBz5vXwKekXFDE-kG2-5" value="L3" style="sketch=0;points=[[0.015,0.015,0],[0.985,0.015,0],[0.985,0.985,0],[0.015,0.985,0],[0.25,0,0],[0.5,0,0],[0.75,0,0],[1,0.25,0],[1,0.5,0],[1,0.75,0],[0.75,1,0],[0.5,1,0],[0.25,1,0],[0,0.75,0],[0,0.5,0],[0,0.25,0]];verticalLabelPosition=bottom;html=1;verticalAlign=top;aspect=fixed;align=center;pointerEvents=1;shape=mxgraph.cisco19.rect;prIcon=l2_switch;fillColor=#FAFAFA;strokeColor=#005073;" parent="1" vertex="1">
          <mxGeometry x="615" y="336" width="50" height="50" as="geometry" />
        </mxCell>
        <mxCell id="_DbBz5vXwKekXFDE-kG2-12" style="rounded=0;orthogonalLoop=1;jettySize=auto;html=1;endArrow=none;endFill=0;" parent="1" source="_DbBz5vXwKekXFDE-kG2-6" target="_DbBz5vXwKekXFDE-kG2-2" edge="1">
          <mxGeometry relative="1" as="geometry" />
        </mxCell>
        <mxCell id="_DbBz5vXwKekXFDE-kG2-16" style="rounded=0;orthogonalLoop=1;jettySize=auto;html=1;endArrow=none;endFill=0;" parent="1" source="_DbBz5vXwKekXFDE-kG2-6" target="_DbBz5vXwKekXFDE-kG2-1" edge="1">
          <mxGeometry relative="1" as="geometry" />
        </mxCell>
        <mxCell id="_DbBz5vXwKekXFDE-kG2-6" value="B1" style="sketch=0;points=[[0.015,0.015,0],[0.985,0.015,0],[0.985,0.985,0],[0.015,0.985,0],[0.25,0,0],[0.5,0,0],[0.75,0,0],[1,0.25,0],[1,0.5,0],[1,0.75,0],[0.75,1,0],[0.5,1,0],[0.25,1,0],[0,0.75,0],[0,0.5,0],[0,0.25,0]];verticalLabelPosition=bottom;html=1;verticalAlign=top;aspect=fixed;align=center;pointerEvents=1;shape=mxgraph.cisco19.rect;prIcon=l2_switch;fillColor=#FAFAFA;strokeColor=#005073;" parent="1" vertex="1">
          <mxGeometry x="776" y="336" width="50" height="50" as="geometry" />
        </mxCell>
        <mxCell id="0Q0dLY1zgngYqnZP1TZ0-1" value="1.1.1.1" style="text;align=center;html=1;verticalAlign=middle;whiteSpace=wrap;rounded=0;rotation=90;shadow=0;glass=0;" parent="1" vertex="1">
          <mxGeometry x="450" y="186" width="60" height="30" as="geometry" />
        </mxCell>
        <mxCell id="0Q0dLY1zgngYqnZP1TZ0-2" value="1.1.1.2" style="text;strokeColor=none;align=center;fillColor=none;html=1;verticalAlign=middle;whiteSpace=wrap;rounded=0;rotation=90;" parent="1" vertex="1">
          <mxGeometry x="690" y="186" width="60" height="30" as="geometry" />
        </mxCell>
        <mxCell id="0Q0dLY1zgngYqnZP1TZ0-3" value="1.1.1.11" style="text;strokeColor=none;align=center;fillColor=none;html=1;verticalAlign=middle;whiteSpace=wrap;rounded=0;rotation=90;" parent="1" vertex="1">
          <mxGeometry x="330" y="346" width="60" height="30" as="geometry" />
        </mxCell>
        <mxCell id="0Q0dLY1zgngYqnZP1TZ0-5" value="1.1.1.12" style="text;strokeColor=none;align=center;fillColor=none;html=1;verticalAlign=middle;whiteSpace=wrap;rounded=0;rotation=90;" parent="1" vertex="1">
          <mxGeometry x="490" y="346" width="60" height="30" as="geometry" />
        </mxCell>
        <mxCell id="0Q0dLY1zgngYqnZP1TZ0-6" value="1.1.1.13" style="text;strokeColor=none;align=center;fillColor=none;html=1;verticalAlign=middle;whiteSpace=wrap;rounded=0;rotation=90;" parent="1" vertex="1">
          <mxGeometry x="650" y="346" width="60" height="30" as="geometry" />
        </mxCell>
        <mxCell id="0Q0dLY1zgngYqnZP1TZ0-7" value="1.1.1.21" style="text;strokeColor=none;align=center;fillColor=none;html=1;verticalAlign=middle;whiteSpace=wrap;rounded=0;rotation=90;" parent="1" vertex="1">
          <mxGeometry x="810" y="346" width="60" height="30" as="geometry" />
        </mxCell>
        <mxCell id="OTFyuBFAIsrNicnEkzx7-2" value="h1&lt;div&gt;192.168.1.11&lt;/div&gt;" style="sketch=0;outlineConnect=0;fontColor=#232F3E;gradientColor=none;strokeColor=#232F3E;fillColor=#ffffff;dashed=0;verticalLabelPosition=bottom;verticalAlign=top;align=center;html=1;fontSize=12;fontStyle=0;aspect=fixed;shape=mxgraph.aws4.resourceIcon;resIcon=mxgraph.aws4.traditional_server;" vertex="1" parent="1">
          <mxGeometry x="290.5" y="460" width="60" height="60" as="geometry" />
        </mxCell>
        <mxCell id="OTFyuBFAIsrNicnEkzx7-3" value="h2&lt;div&gt;192.168.1.12&lt;/div&gt;" style="sketch=0;outlineConnect=0;fontColor=#232F3E;gradientColor=none;strokeColor=#232F3E;fillColor=#ffffff;dashed=0;verticalLabelPosition=bottom;verticalAlign=top;align=center;html=1;fontSize=12;fontStyle=0;aspect=fixed;shape=mxgraph.aws4.resourceIcon;resIcon=mxgraph.aws4.traditional_server;" vertex="1" parent="1">
          <mxGeometry x="410" y="460" width="60" height="60" as="geometry" />
        </mxCell>
        <mxCell id="OTFyuBFAIsrNicnEkzx7-4" value="h3&lt;div&gt;192.168.1.13&lt;/div&gt;" style="sketch=0;outlineConnect=0;fontColor=#232F3E;gradientColor=none;strokeColor=#232F3E;fillColor=#ffffff;dashed=0;verticalLabelPosition=bottom;verticalAlign=top;align=center;html=1;fontSize=12;fontStyle=0;aspect=fixed;shape=mxgraph.aws4.resourceIcon;resIcon=mxgraph.aws4.traditional_server;" vertex="1" parent="1">
          <mxGeometry x="490" y="460" width="60" height="60" as="geometry" />
        </mxCell>
        <mxCell id="OTFyuBFAIsrNicnEkzx7-7" style="edgeStyle=orthogonalEdgeStyle;rounded=0;orthogonalLoop=1;jettySize=auto;html=1;entryX=0.5;entryY=1;entryDx=0;entryDy=0;entryPerimeter=0;endArrow=none;endFill=0;" edge="1" parent="1" source="OTFyuBFAIsrNicnEkzx7-2" target="_DbBz5vXwKekXFDE-kG2-3">
          <mxGeometry relative="1" as="geometry" />
        </mxCell>
        <mxCell id="OTFyuBFAIsrNicnEkzx7-8" style="rounded=0;orthogonalLoop=1;jettySize=auto;html=1;entryX=0.25;entryY=1;entryDx=0;entryDy=0;entryPerimeter=0;endArrow=none;endFill=0;" edge="1" parent="1" source="OTFyuBFAIsrNicnEkzx7-3" target="_DbBz5vXwKekXFDE-kG2-4">
          <mxGeometry relative="1" as="geometry" />
        </mxCell>
        <mxCell id="OTFyuBFAIsrNicnEkzx7-9" style="rounded=0;orthogonalLoop=1;jettySize=auto;html=1;entryX=0.75;entryY=1;entryDx=0;entryDy=0;entryPerimeter=0;endArrow=none;endFill=0;" edge="1" parent="1" source="OTFyuBFAIsrNicnEkzx7-4" target="_DbBz5vXwKekXFDE-kG2-4">
          <mxGeometry relative="1" as="geometry" />
        </mxCell>
        <mxCell id="OTFyuBFAIsrNicnEkzx7-12" style="rounded=0;orthogonalLoop=1;jettySize=auto;html=1;endArrow=none;endFill=0;" edge="1" parent="1" source="OTFyuBFAIsrNicnEkzx7-10" target="_DbBz5vXwKekXFDE-kG2-5">
          <mxGeometry relative="1" as="geometry" />
        </mxCell>
        <mxCell id="OTFyuBFAIsrNicnEkzx7-10" value="h3&lt;div&gt;192.168.2.11&lt;/div&gt;" style="sketch=0;outlineConnect=0;fontColor=#232F3E;gradientColor=none;strokeColor=#232F3E;fillColor=#ffffff;dashed=0;verticalLabelPosition=bottom;verticalAlign=top;align=center;html=1;fontSize=12;fontStyle=0;aspect=fixed;shape=mxgraph.aws4.resourceIcon;resIcon=mxgraph.aws4.traditional_server;" vertex="1" parent="1">
          <mxGeometry x="610" y="460" width="60" height="60" as="geometry" />
        </mxCell>
        <mxCell id="OTFyuBFAIsrNicnEkzx7-11" value="h4 (sFlow)&lt;div&gt;192.168.2.11&lt;/div&gt;" style="sketch=0;outlineConnect=0;fontColor=#232F3E;gradientColor=none;strokeColor=#232F3E;fillColor=#ffffff;dashed=0;verticalLabelPosition=bottom;verticalAlign=top;align=center;html=1;fontSize=12;fontStyle=0;aspect=fixed;shape=mxgraph.aws4.resourceIcon;resIcon=mxgraph.aws4.traditional_server;" vertex="1" parent="1">
          <mxGeometry x="771" y="460" width="60" height="60" as="geometry" />
        </mxCell>
        <mxCell id="OTFyuBFAIsrNicnEkzx7-13" style="rounded=0;orthogonalLoop=1;jettySize=auto;html=1;entryX=0.5;entryY=1;entryDx=0;entryDy=0;entryPerimeter=0;endArrow=none;endFill=0;" edge="1" parent="1" source="OTFyuBFAIsrNicnEkzx7-11" target="_DbBz5vXwKekXFDE-kG2-6">
          <mxGeometry relative="1" as="geometry" />
        </mxCell>
      </root>
    </mxGraphModel>
  </diagram>
</mxfile>
